<svg id="my-svg" width="100%" xmlns="http://www.w3.org/2000/svg" xmlns:xlink="http://www.w3.org/1999/xlink" style="max-width: 981.57px; background-color: transparent;" viewBox="-8 -8 981.5703125 606.1751098632812" role="graphics-document document" aria-roledescription="flowchart-v2"><style>#my-svg{font-family:"trebuchet ms",verdana,arial,sans-serif;font-size:16px;fill:#333;}#my-svg .error-icon{fill:#552222;}#my-svg .error-text{fill:#552222;stroke:#552222;}#my-svg .edge-thickness-normal{stroke-width:2px;}#my-svg .edge-thickness-thick{stroke-width:3.5px;}#my-svg .edge-pattern-solid{stroke-dasharray:0;}#my-svg .edge-pattern-dashed{stroke-dasharray:3;}#my-svg .edge-pattern-dotted{stroke-dasharray:2;}#my-svg .marker{fill:#333333;stroke:#333333;}#my-svg .marker.cross{stroke:#333333;}#my-svg svg{font-family:"trebuchet ms",verdana,arial,sans-serif;font-size:16px;}#my-svg .label{font-family:"trebuchet ms",verdana,arial,sans-serif;color:#333;}#my-svg .cluster-label text{fill:#333;}#my-svg .cluster-label span,#my-svg p{color:#333;}#my-svg .label text,#my-svg span,#my-svg p{fill:#333;color:#333;}#my-svg .node rect,#my-svg .node circle,#my-svg .node ellipse,#my-svg .node polygon,#my-svg .node path{fill:#ECECFF;stroke:#9370DB;stroke-width:1px;}#my-svg .flowchart-label text{text-anchor:middle;}#my-svg .node .katex path{fill:#000;stroke:#000;stroke-width:1px;}#my-svg .node .label{text-align:center;}#my-svg .node.clickable{cursor:pointer;}#my-svg .arrowheadPath{fill:#333333;}#my-svg .edgePath .path{stroke:#333333;stroke-width:2.0px;}#my-svg .flowchart-link{stroke:#333333;fill:none;}#my-svg .edgeLabel{background-color:#e8e8e8;text-align:center;}#my-svg .edgeLabel rect{opacity:0.5;background-color:#e8e8e8;fill:#e8e8e8;}#my-svg .labelBkg{background-color:rgba(232, 232, 232, 0.5);}#my-svg .cluster rect{fill:#ffffde;stroke:#aaaa33;stroke-width:1px;}#my-svg .cluster text{fill:#333;}#my-svg .cluster span,#my-svg p{color:#333;}#my-svg div.mermaidTooltip{position:absolute;text-align:center;max-width:200px;padding:2px;font-family:"trebuchet ms",verdana,arial,sans-serif;font-size:12px;background:hsl(80, 100%, 96.2745098039%);border:1px solid #aaaa33;border-radius:2px;pointer-events:none;z-index:100;}#my-svg .flowchartTitleText{text-anchor:middle;font-size:18px;fill:#333;}#my-svg :root{--mermaid-font-family:"trebuchet ms",verdana,arial,sans-serif;}</style><g><marker id="my-svg_flowchart-pointEnd" class="marker flowchart" viewBox="0 0 10 10" refX="6" refY="5" markerUnits="userSpaceOnUse" markerWidth="12" markerHeight="12" orient="auto"><path d="M 0 0 L 10 5 L 0 10 z" class="arrowMarkerPath" style="stroke-width: 1; stroke-dasharray: 1, 0;"/></marker><marker id="my-svg_flowchart-pointStart" class="marker flowchart" viewBox="0 0 10 10" refX="4.5" refY="5" markerUnits="userSpaceOnUse" markerWidth="12" markerHeight="12" orient="auto"><path d="M 0 5 L 10 10 L 10 0 z" class="arrowMarkerPath" style="stroke-width: 1; stroke-dasharray: 1, 0;"/></marker><marker id="my-svg_flowchart-circleEnd" class="marker flowchart" viewBox="0 0 10 10" refX="11" refY="5" markerUnits="userSpaceOnUse" markerWidth="11" markerHeight="11" orient="auto"><circle cx="5" cy="5" r="5" class="arrowMarkerPath" style="stroke-width: 1; stroke-dasharray: 1, 0;"/></marker><marker id="my-svg_flowchart-circleStart" class="marker flowchart" viewBox="0 0 10 10" refX="-1" refY="5" markerUnits="userSpaceOnUse" markerWidth="11" markerHeight="11" orient="auto"><circle cx="5" cy="5" r="5" class="arrowMarkerPath" style="stroke-width: 1; stroke-dasharray: 1, 0;"/></marker><marker id="my-svg_flowchart-crossEnd" class="marker cross flowchart" viewBox="0 0 11 11" refX="12" refY="5.2" markerUnits="userSpaceOnUse" markerWidth="11" markerHeight="11" orient="auto"><path d="M 1,1 l 9,9 M 10,1 l -9,9" class="arrowMarkerPath" style="stroke-width: 2; stroke-dasharray: 1, 0;"/></marker><marker id="my-svg_flowchart-crossStart" class="marker cross flowchart" viewBox="0 0 11 11" refX="-1" refY="5.2" markerUnits="userSpaceOnUse" markerWidth="11" markerHeight="11" orient="auto"><path d="M 1,1 l 9,9 M 10,1 l -9,9" class="arrowMarkerPath" style="stroke-width: 2; stroke-dasharray: 1, 0;"/></marker><g class="root"><g class="clusters"><g class="cluster default flowchart-label" id="Backend"><rect style="" rx="0" ry="0" x="31.00390625" y="134" width="507.76953125" height="336"/><g class="cluster-label" transform="translate(189.654296875, 134)"><foreignObject width="190.46875" height="19"><div xmlns="http://www.w3.org/1999/xhtml" style="display: inline-block; white-space: nowrap;"><span class="nodeLabel">Backend Spring Boot :8083</span></div></foreignObject></g></g><g class="cluster default flowchart-label" id="Clientes"><rect style="" rx="0" ry="0" x="0" y="0" width="616.203125" height="84"/><g class="cluster-label" transform="translate(279.1640625, 0)"><foreignObject width="57.875" height="19"><div xmlns="http://www.w3.org/1999/xhtml" style="display: inline-block; white-space: nowrap;"><span class="nodeLabel">Clientes</span></div></foreignObject></g></g></g><g class="edgePaths"><path d="M102.008,59L102.008,63.167C102.008,67.333,102.008,75.667,102.008,84C102.008,92.333,102.008,100.667,102.008,109C102.008,117.333,102.008,125.667,126.894,134.795C151.78,143.923,201.553,153.846,226.439,158.807L251.326,163.768" id="L-Web-API-0" class="edge-thickness-normal edge-pattern-solid flowchart-link LS-Web LE-API" style="fill:none;" marker-end="url(#my-svg_flowchart-pointEnd)"/><path d="M312.68,59L312.68,63.167C312.68,67.333,312.68,75.667,312.68,84C312.68,92.333,312.68,100.667,312.68,109C312.68,117.333,312.68,125.667,312.68,133.117C312.68,140.567,312.68,147.133,312.68,150.417L312.68,153.7" id="L-Movil-API-0" class="edge-thickness-normal edge-pattern-solid flowchart-link LS-Movil LE-API" style="fill:none;" marker-end="url(#my-svg_flowchart-pointEnd)"/><path d="M518.773,59L518.773,63.167C518.773,67.333,518.773,75.667,518.773,84C518.773,92.333,518.773,100.667,518.773,109C518.773,117.333,518.773,125.667,494.649,134.75C470.525,143.833,422.277,153.665,398.153,158.581L374.029,163.498" id="L-PWA-API-0" class="edge-thickness-normal edge-pattern-solid flowchart-link LS-PWA LE-API" style="fill:none;" marker-end="url(#my-svg_flowchart-pointEnd)"/><path d="M312.68,193L312.68,197.167C312.68,201.333,312.68,209.667,312.68,217.117C312.68,224.567,312.68,231.133,312.68,234.417L312.68,237.7" id="L-API-Sec-0" class="edge-thickness-normal edge-pattern-solid flowchart-link LS-API LE-Sec" style="fill:none;" marker-end="url(#my-svg_flowchart-pointEnd)"/><path d="M251.436,277L236.425,281.167C221.414,285.333,191.393,293.667,176.382,301.117C161.371,308.567,161.371,315.133,161.371,318.417L161.371,321.7" id="L-Sec-Svc-0" class="edge-thickness-normal edge-pattern-solid flowchart-link LS-Sec LE-Svc" style="fill:none;" marker-end="url(#my-svg_flowchart-pointEnd)"/><path d="M149.228,361L146.252,365.167C143.276,369.333,137.323,377.667,134.347,385.117C131.371,392.567,131.371,399.133,131.371,402.417L131.371,405.7" id="L-Svc-Repo-0" class="edge-thickness-normal edge-pattern-solid flowchart-link LS-Svc LE-Repo" style="fill:none;" marker-end="url(#my-svg_flowchart-pointEnd)"/><path d="M131.371,445L131.371,449.167C131.371,453.333,131.371,461.667,131.371,470C131.371,478.333,131.371,486.667,131.371,494.117C131.371,501.567,131.371,508.133,131.371,511.417L131.371,514.7" id="L-Repo-DB-0" class="edge-thickness-normal edge-pattern-solid flowchart-link LS-Repo LE-DB" style="fill:none;" marker-end="url(#my-svg_flowchart-pointEnd)"/><path d="M157.323,361L156.331,365.167C155.339,369.333,153.355,377.667,221.883,387.731C290.412,397.795,429.452,409.59,498.972,415.488L568.492,421.385" id="L-Svc-SMTP-0" class="edge-thickness-normal edge-pattern-solid flowchart-link LS-Svc LE-SMTP" style="fill:none;" marker-end="url(#my-svg_flowchart-pointEnd)"/><path d="M200.168,352.18L226.902,357.817C253.637,363.453,307.105,374.727,401.058,385.934C495.01,397.141,629.446,408.283,696.664,413.853L763.882,419.424" id="L-Svc-FCM-0" class="edge-thickness-normal edge-pattern-solid flowchart-link LS-Svc LE-FCM" style="fill:none;" marker-end="url(#my-svg_flowchart-pointEnd)"/><path d="M376.801,277L392.517,281.167C408.233,285.333,439.666,293.667,472.09,301.796C504.514,309.926,537.93,317.851,554.639,321.814L571.347,325.777" id="L-Sec-Azure-0" class="edge-thickness-normal edge-pattern-solid flowchart-link LS-Sec LE-Azure" style="fill:none;" marker-end="url(#my-svg_flowchart-pointEnd)"/></g><g class="edgeLabels"><g class="edgeLabel"><g class="label" transform="translate(0, 0)"><foreignObject width="0" height="0"><div xmlns="http://www.w3.org/1999/xhtml" style="display: inline-block; white-space: nowrap;"><span class="edgeLabel"></span></div></foreignObject></g></g><g class="edgeLabel"><g class="label" transform="translate(0, 0)"><foreignObject width="0" height="0"><div xmlns="http://www.w3.org/1999/xhtml" style="display: inline-block; white-space: nowrap;"><span class="edgeLabel"></span></div></foreignObject></g></g><g class="edgeLabel"><g class="label" transform="translate(0, 0)"><foreignObject width="0" height="0"><div xmlns="http://www.w3.org/1999/xhtml" style="display: inline-block; white-space: nowrap;"><span class="edgeLabel"></span></div></foreignObject></g></g><g class="edgeLabel"><g class="label" transform="translate(0, 0)"><foreignObject width="0" height="0"><div xmlns="http://www.w3.org/1999/xhtml" style="display: inline-block; white-space: nowrap;"><span class="edgeLabel"></span></div></foreignObject></g></g><g class="edgeLabel"><g class="label" transform="translate(0, 0)"><foreignObject width="0" height="0"><div xmlns="http://www.w3.org/1999/xhtml" style="display: inline-block; white-space: nowrap;"><span class="edgeLabel"></span></div></foreignObject></g></g><g class="edgeLabel"><g class="label" transform="translate(0, 0)"><foreignObject width="0" height="0"><div xmlns="http://www.w3.org/1999/xhtml" style="display: inline-block; white-space: nowrap;"><span class="edgeLabel"></span></div></foreignObject></g></g><g class="edgeLabel"><g class="label" transform="translate(0, 0)"><foreignObject width="0" height="0"><div xmlns="http://www.w3.org/1999/xhtml" style="display: inline-block; white-space: nowrap;"><span class="edgeLabel"></span></div></foreignObject></g></g><g class="edgeLabel"><g class="label" transform="translate(0, 0)"><foreignObject width="0" height="0"><div xmlns="http://www.w3.org/1999/xhtml" style="display: inline-block; white-space: nowrap;"><span class="edgeLabel"></span></div></foreignObject></g></g><g class="edgeLabel"><g class="label" transform="translate(0, 0)"><foreignObject width="0" height="0"><div xmlns="http://www.w3.org/1999/xhtml" style="display: inline-block; white-space: nowrap;"><span class="edgeLabel"></span></div></foreignObject></g></g><g class="edgeLabel"><g class="label" transform="translate(0, 0)"><foreignObject width="0" height="0"><div xmlns="http://www.w3.org/1999/xhtml" style="display: inline-block; white-space: nowrap;"><span class="edgeLabel"></span></div></foreignObject></g></g></g><g class="nodes"><g class="node default default flowchart-label" id="flowchart-API-3" data-node="true" data-id="API" transform="translate(312.6796875, 176)"><rect class="basic label-container" style="" rx="0" ry="0" x="-56.15625" y="-17" width="112.3125" height="34"/><g class="label" style="" transform="translate(-48.65625, -9.5)"><rect/><foreignObject width="97.3125" height="19"><div xmlns="http://www.w3.org/1999/xhtml" style="display: inline-block; white-space: nowrap;"><span class="nodeLabel">API REST /api</span></div></foreignObject></g></g><g class="node default default flowchart-label" id="flowchart-Sec-4" data-node="true" data-id="Sec" transform="translate(312.6796875, 260)"><rect class="basic label-container" style="" rx="0" ry="0" x="-80.3515625" y="-17" width="160.703125" height="34"/><g class="label" style="" transform="translate(-72.8515625, -9.5)"><rect/><foreignObject width="145.703125" height="19"><div xmlns="http://www.w3.org/1999/xhtml" style="display: inline-block; white-space: nowrap;"><span class="nodeLabel">Capa Seguridad JWT</span></div></foreignObject></g></g><g class="node default default flowchart-label" id="flowchart-Svc-5" data-node="true" data-id="Svc" transform="translate(161.37109375, 344)"><rect class="basic label-container" style="" rx="0" ry="0" x="-38.796875" y="-17" width="77.59375" height="34"/><g class="label" style="" transform="translate(-31.296875, -9.5)"><rect/><foreignObject width="62.59375" height="19"><div xmlns="http://www.w3.org/1999/xhtml" style="display: inline-block; white-space: nowrap;"><span class="nodeLabel">Servicios</span></div></foreignObject></g></g><g class="node default default flowchart-label" id="flowchart-Repo-6" data-node="true" data-id="Repo" transform="translate(131.37109375, 428)"><rect class="basic label-container" style="" rx="0" ry="0" x="-65.3671875" y="-17" width="130.734375" height="34"/><g class="label" style="" transform="translate(-57.8671875, -9.5)"><rect/><foreignObject width="115.734375" height="19"><div xmlns="http://www.w3.org/1999/xhtml" style="display: inline-block; white-space: nowrap;"><span class="nodeLabel">Repositorios JPA</span></div></foreignObject></g></g><g class="node default default flowchart-label" id="flowchart-Web-0" data-node="true" data-id="Web" transform="translate(102.0078125, 42)"><rect class="basic label-container" style="" rx="0" ry="0" x="-67.0078125" y="-17" width="134.015625" height="34"/><g class="label" style="" transform="translate(-59.5078125, -9.5)"><rect/><foreignObject width="119.015625" height="19"><div xmlns="http://www.w3.org/1999/xhtml" style="display: inline-block; white-space: nowrap;"><span class="nodeLabel">Panel Web React</span></div></foreignObject></g></g><g class="node default default flowchart-label" id="flowchart-Movil-1" data-node="true" data-id="Movil" transform="translate(312.6796875, 42)"><rect class="basic label-container" style="" rx="0" ry="0" x="-93.6640625" y="-17" width="187.328125" height="34"/><g class="label" style="" transform="translate(-86.1640625, -9.5)"><rect/><foreignObject width="172.328125" height="19"><div xmlns="http://www.w3.org/1999/xhtml" style="display: inline-block; white-space: nowrap;"><span class="nodeLabel">App Flutter Android/iOS</span></div></foreignObject></g></g><g class="node default default flowchart-label" id="flowchart-PWA-2" data-node="true" data-id="PWA" transform="translate(518.7734375, 42)"><rect class="basic label-container" style="" rx="0" ry="0" x="-62.4296875" y="-17" width="124.859375" height="34"/><g class="label" style="" transform="translate(-54.9296875, -9.5)"><rect/><foreignObject width="109.859375" height="19"><div xmlns="http://www.w3.org/1999/xhtml" style="display: inline-block; white-space: nowrap;"><span class="nodeLabel">PWA Navegador</span></div></foreignObject></g></g><g class="node default default flowchart-label" id="flowchart-DB-7" data-node="true" data-id="DB" transform="translate(131.37109375, 555.0875473022461)"><path style="" d="M 0,12.058366765885854 a 58.234375,12.058366765885854 0,0,0 116.46875 0 a 58.234375,12.058366765885854 0,0,0 -116.46875 0 l 0,46.05836676588585 a 58.234375,12.058366765885854 0,0,0 116.46875 0 l 0,-46.05836676588585" transform="translate(-58.234375,-35.08755014882878)"/><g class="label" style="" transform="translate(-50.734375, -9.5)"><rect/><foreignObject width="101.46875" height="19"><div xmlns="http://www.w3.org/1999/xhtml" style="display: inline-block; white-space: nowrap;"><span class="nodeLabel">MySQL gea</span></div></foreignObject></g></g><g class="node default default flowchart-label" id="flowchart-SMTP-8" data-node="true" data-id="SMTP" transform="translate(646.46875, 428)"><rect class="basic label-container" style="" rx="0" ry="0" x="-72.6953125" y="-17" width="145.390625" height="34"/><g class="label" style="" transform="translate(-65.1953125, -9.5)"><rect/><foreignObject width="130.390625" height="19"><div xmlns="http://www.w3.org/1999/xhtml" style="display: inline-block; white-space: nowrap;"><span class="nodeLabel">SMTP Institucional</span></div></foreignObject></g></g><g class="node default default flowchart-label" id="flowchart-FCM-9" data-node="true" data-id="FCM" transform="translate(867.3671875, 428)"><rect class="basic label-container" style="" rx="0" ry="0" x="-98.203125" y="-17" width="196.40625" height="34"/><g class="label" style="" transform="translate(-90.703125, -9.5)"><rect/><foreignObject width="181.40625" height="19"><div xmlns="http://www.w3.org/1999/xhtml" style="display: inline-block; white-space: nowrap;"><span class="nodeLabel">Firebase Cloud Messaging</span></div></foreignObject></g></g><g class="node default default flowchart-label" id="flowchart-Azure-10" data-node="true" data-id="Azure" transform="translate(648.1796875, 344)"><rect class="basic label-container" style="" rx="0" ry="0" x="-74.40625" y="-17" width="148.8125" height="34"/><g class="label" style="" transform="translate(-66.90625, -9.5)"><rect/><foreignObject width="133.8125" height="19"><div xmlns="http://www.w3.org/1999/xhtml" style="display: inline-block; white-space: nowrap;"><span class="nodeLabel">Microsoft Azure AD</span></div></foreignObject></g></g></g></g></g></svg>